<svg width="11" height="7" viewBox="0 0 11 7" fill="none" xmlns="http://www.w3.org/2000/svg">
<path fill-rule="evenodd" clip-rule="evenodd" d="M1.1017 1.10171C1.13386 1.06948 1.17206 1.0439 1.21411 1.02645C1.25617 1.009 1.30126 1.00001 1.34679 1.00001C1.39232 1.00001 1.43741 1.009 1.47947 1.02645C1.52152 1.0439 1.55972 1.06948 1.59188 1.10171L5.50085 5.01138L9.40983 1.10171C9.44201 1.06953 9.48022 1.044 9.52227 1.02658C9.56433 1.00916 9.6094 1.00019 9.65492 1.00019C9.70043 1.00019 9.74551 1.00916 9.78756 1.02658C9.82961 1.044 9.86782 1.06953 9.90001 1.10171C9.93219 1.1339 9.95772 1.17211 9.97514 1.21416C9.99256 1.25621 10.0015 1.30129 10.0015 1.3468C10.0015 1.39232 9.99256 1.43739 9.97514 1.47944C9.95772 1.5215 9.93219 1.55971 9.90001 1.59189L5.74594 5.74596C5.71379 5.77819 5.67559 5.80377 5.63353 5.82122C5.59147 5.83867 5.54639 5.84766 5.50085 5.84766C5.45532 5.84766 5.41023 5.83867 5.36818 5.82122C5.32612 5.80377 5.28792 5.77819 5.25576 5.74596L1.1017 1.59189C1.06946 1.55974 1.04389 1.52154 1.02643 1.47948C1.00898 1.43742 1 1.39234 1 1.3468C1 1.30127 1.00898 1.25618 1.02643 1.21413C1.04389 1.17207 1.06946 1.13387 1.1017 1.10171Z" fill="#374C91" stroke="#374C91"/>
</svg>
