<svg width="16" height="18" viewBox="0 0 16 18" fill="none" xmlns="http://www.w3.org/2000/svg">
<path d="M3.8335 8.16669H5.50016V9.83335H3.8335V8.16669ZM3.8335 11.5H5.50016V13.1667H3.8335V11.5ZM7.16683 8.16669H8.8335V9.83335H7.16683V8.16669ZM7.16683 11.5H8.8335V13.1667H7.16683V11.5ZM10.5002 8.16669H12.1668V9.83335H10.5002V8.16669ZM10.5002 11.5H12.1668V13.1667H10.5002V11.5Z" fill="#666666"/>
<path d="M2.16667 17.3334H13.8333C14.7525 17.3334 15.5 16.5859 15.5 15.6667V4.00002C15.5 3.08085 14.7525 2.33335 13.8333 2.33335H12.1667V0.666687H10.5V2.33335H5.5V0.666687H3.83333V2.33335H2.16667C1.2475 2.33335 0.5 3.08085 0.5 4.00002V15.6667C0.5 16.5859 1.2475 17.3334 2.16667 17.3334ZM13.8333 5.66669L13.8342 15.6667H2.16667V5.66669H13.8333Z" fill="#666666"/>
</svg>
