<svg width="22" height="18" viewBox="0 0 22 18" fill="none" xmlns="http://www.w3.org/2000/svg">
<path d="M15.2222 17.0001V15.2223C15.2222 14.2793 14.8476 13.3749 14.1808 12.7081C13.514 12.0414 12.6097 11.6667 11.6667 11.6667H4.55556C3.61256 11.6667 2.70819 12.0414 2.0414 12.7081C1.3746 13.3749 1 14.2793 1 15.2223V17.0001" stroke="black" stroke-width="2" stroke-linecap="round" stroke-linejoin="round"/>
<path d="M8.11024 8.11111C10.0739 8.11111 11.6658 6.51923 11.6658 4.55556C11.6658 2.59188 10.0739 1 8.11024 1C6.14656 1 4.55469 2.59188 4.55469 4.55556C4.55469 6.51923 6.14656 8.11111 8.11024 8.11111Z" stroke="black" stroke-width="2" stroke-linecap="round" stroke-linejoin="round"/>
<path d="M20.5553 17V15.2222C20.5548 14.4344 20.2925 13.6691 19.8099 13.0465C19.3272 12.4239 18.6515 11.9792 17.8887 11.7822" stroke="black" stroke-width="2" stroke-linecap="round" stroke-linejoin="round"/>
<path d="M14.334 1.11548C15.0988 1.3113 15.7767 1.7561 16.2608 2.37975C16.7449 3.00341 17.0076 3.77044 17.0076 4.55992C17.0076 5.34941 16.7449 6.11644 16.2608 6.74009C15.7767 7.36374 15.0988 7.80854 14.334 8.00437" stroke="black" stroke-width="2" stroke-linecap="round" stroke-linejoin="round"/>
</svg>
