<svg width="18" height="15" viewBox="0 0 18 15" fill="none" xmlns="http://www.w3.org/2000/svg">
<path d="M17.659 5.52258C17.7961 5.40979 18 5.5153 18 5.69357V13.1336C18 14.0977 17.2441 14.8799 16.3125 14.8799H1.6875C0.755859 14.8799 0 14.0977 0 13.1336V5.69721C0 5.5153 0.200391 5.41343 0.341016 5.52621C1.12852 6.15925 2.17266 6.96328 5.75859 9.65915C6.50039 10.2194 7.75195 11.3982 9 11.3909C10.2551 11.4018 11.5312 10.1976 12.2449 9.65915C15.8309 6.96328 16.8715 6.15561 17.659 5.52258ZM9 10.2231C9.81563 10.2376 10.9898 9.16073 11.5805 8.71687C16.2457 5.21333 16.6008 4.90773 17.6766 4.03457C17.8805 3.87085 18 3.61618 18 3.34696V2.65571C18 1.6916 17.2441 0.909401 16.3125 0.909401H1.6875C0.755859 0.909401 0 1.6916 0 2.65571V3.34696C0 3.61618 0.119531 3.86722 0.323437 4.03457C1.39922 4.90409 1.7543 5.21333 6.41953 8.71687C7.01016 9.16073 8.18437 10.2376 9 10.2231Z" fill="#0C3489"/>
</svg>
