<svg width="12" height="14" viewBox="0 0 12 14" fill="none" xmlns="http://www.w3.org/2000/svg">
<path d="M0.958364 12H10.5281C10.7301 12.0001 10.9246 12.0722 11.0722 12.202C11.2199 12.3317 11.3097 12.5093 11.3234 12.6989C11.3372 12.8885 11.2739 13.0759 11.1464 13.2233C11.0189 13.3707 10.8367 13.4671 10.6365 13.493L10.5281 13.5H0.958364C0.756312 13.4999 0.561816 13.4278 0.414176 13.298C0.266536 13.1683 0.176761 12.9907 0.162989 12.8011C0.149217 12.6115 0.212476 12.4241 0.339984 12.2767C0.467492 12.1293 0.649741 12.0329 0.849908 12.007L0.958364 12H10.5281H0.958364ZM5.63475 0.00699997L5.74321 0C5.93592 7.6429e-06 6.12211 0.0656428 6.26734 0.184767C6.41258 0.303892 6.50703 0.468446 6.53324 0.648L6.54068 0.75V8.438L8.93842 6.184C9.07365 6.05687 9.25294 5.97966 9.44362 5.96645C9.6343 5.95323 9.82369 6.00489 9.97727 6.112L10.0666 6.184C10.2018 6.31117 10.2839 6.47979 10.2979 6.65912C10.312 6.83845 10.257 7.01657 10.1431 7.161L10.0666 7.245L6.30676 10.78C6.17173 10.907 5.99272 10.9842 5.80228 10.9976C5.61183 11.011 5.42259 10.9597 5.26898 10.853L5.17966 10.78L1.41984 7.245C1.27715 7.11118 1.19362 6.93151 1.18605 6.74213C1.17848 6.55274 1.24742 6.36768 1.37902 6.22416C1.51062 6.08063 1.69511 5.98928 1.89541 5.96848C2.0957 5.94767 2.29695 5.99895 2.45868 6.112L2.548 6.184L4.94574 8.44V0.75C4.94574 0.568762 5.01553 0.393658 5.1422 0.257069C5.26886 0.120481 5.44383 0.0316483 5.63475 0.00699997L5.74321 0L5.63475 0.00699997Z" fill="black"/>
</svg>
