<svg width="17" height="15" viewBox="0 0 17 15" fill="none" xmlns="http://www.w3.org/2000/svg">
<path d="M1.75066 5.77996L2.50066 5.33996V6.99996H15.5007V5.35496L16.2407 5.77996C16.3549 5.83974 16.4879 5.85305 16.6117 5.81712C16.7356 5.78119 16.8408 5.69879 16.9053 5.58714C16.9698 5.47549 16.9887 5.34322 16.9581 5.21796C16.9274 5.0927 16.8495 4.98415 16.7407 4.91496L9.00066 0.459961L1.25066 4.91496C1.19091 4.94622 1.13809 4.98924 1.0954 5.04144C1.05271 5.09363 1.02101 5.15393 1.00222 5.21869C0.983433 5.28346 0.977939 5.35135 0.98607 5.41829C0.994202 5.48524 1.01579 5.54984 1.04954 5.60823C1.08328 5.66661 1.12849 5.71756 1.18244 5.75802C1.23639 5.79848 1.29797 5.8276 1.36347 5.84365C1.42896 5.85969 1.49703 5.86232 1.56357 5.85137C1.63011 5.84043 1.69375 5.81614 1.75066 5.77996ZM8.92566 2.55496C8.98647 2.51985 9.05545 2.50137 9.12566 2.50137C9.19587 2.50137 9.26485 2.51985 9.32566 2.55496L12.6857 4.49996H11.0757L9.12566 3.37996L7.17566 4.49996H5.57066L8.92566 2.55496Z" fill="#616E9F"/>
<path d="M16.425 12.4999H16V12.0749C16 11.9224 15.9394 11.7762 15.8316 11.6684C15.7238 11.5605 15.5775 11.4999 15.425 11.4999H14V7.81494H12V11.4999H10V7.81494H8V11.4999H6V7.81494H4V11.4999H2.575C2.4225 11.4999 2.27625 11.5605 2.16841 11.6684C2.06058 11.7762 2 11.9224 2 12.0749V12.4999H1.575C1.4225 12.4999 1.27625 12.5605 1.16841 12.6684C1.06058 12.7762 1 12.9224 1 13.0749V14.4999H17V13.0749C17 12.9224 16.9394 12.7762 16.8316 12.6684C16.7238 12.5605 16.5775 12.4999 16.425 12.4999Z" fill="#616E9F"/>
</svg>
