<svg width="9" height="10" viewBox="0 0 9 10" fill="none" xmlns="http://www.w3.org/2000/svg">
<mask id="path-1-inside-1" fill="white">
<path fill-rule="evenodd" clip-rule="evenodd" d="M3.56167 0.101701C3.52944 0.133857 3.50386 0.172058 3.48641 0.214114C3.46896 0.256171 3.45997 0.301257 3.45997 0.346791C3.45997 0.392324 3.46896 0.437411 3.48641 0.479467C3.50386 0.521524 3.52944 0.559724 3.56167 0.591881L7.47134 4.50085L3.56167 8.40983C3.49667 8.47483 3.46016 8.56299 3.46016 8.65492C3.46016 8.74684 3.49667 8.835 3.56167 8.90001C3.62668 8.96501 3.71484 9.00152 3.80676 9.00152C3.89869 9.00152 3.98685 8.96501 4.05185 8.90001L8.20592 4.74594C8.23815 4.71379 8.26373 4.67559 8.28118 4.63353C8.29863 4.59147 8.30762 4.54639 8.30762 4.50085C8.30762 4.45532 8.29863 4.41023 8.28118 4.36818C8.26373 4.32612 8.23815 4.28792 8.20592 4.25576L4.05185 0.101701C4.0197 0.0694633 3.9815 0.0438861 3.93944 0.0264346C3.89738 0.00898306 3.8523 0 3.80676 0C3.76123 0 3.71614 0.00898306 3.67409 0.0264346C3.63203 0.0438861 3.59383 0.0694633 3.56167 0.101701Z"/>
</mask>
<path fill-rule="evenodd" clip-rule="evenodd" d="M3.56167 0.101701C3.52944 0.133857 3.50386 0.172058 3.48641 0.214114C3.46896 0.256171 3.45997 0.301257 3.45997 0.346791C3.45997 0.392324 3.46896 0.437411 3.48641 0.479467C3.50386 0.521524 3.52944 0.559724 3.56167 0.591881L7.47134 4.50085L3.56167 8.40983C3.49667 8.47483 3.46016 8.56299 3.46016 8.65492C3.46016 8.74684 3.49667 8.835 3.56167 8.90001C3.62668 8.96501 3.71484 9.00152 3.80676 9.00152C3.89869 9.00152 3.98685 8.96501 4.05185 8.90001L8.20592 4.74594C8.23815 4.71379 8.26373 4.67559 8.28118 4.63353C8.29863 4.59147 8.30762 4.54639 8.30762 4.50085C8.30762 4.45532 8.29863 4.41023 8.28118 4.36818C8.26373 4.32612 8.23815 4.28792 8.20592 4.25576L4.05185 0.101701C4.0197 0.0694633 3.9815 0.0438861 3.93944 0.0264346C3.89738 0.00898306 3.8523 0 3.80676 0C3.76123 0 3.71614 0.00898306 3.67409 0.0264346C3.63203 0.0438861 3.59383 0.0694633 3.56167 0.101701Z" fill="#374C91"/>
<path d="M3.56167 0.591881L4.26789 -0.11612L4.26872 -0.115289L3.56167 0.591881ZM7.47134 4.50085L8.17838 3.79368L8.88568 4.50085L8.17838 5.20802L7.47134 4.50085ZM3.56167 8.40983L2.85457 7.70272L2.85463 7.70266L3.56167 8.40983ZM3.46016 8.65492H4.46016H3.46016ZM3.80676 9.00152V10.0015V9.00152ZM4.05185 8.90001L4.75896 9.60711L4.05185 8.90001ZM8.20592 4.74594L7.49881 4.03884L7.4997 4.03794L8.20592 4.74594ZM8.20592 4.25576L7.4997 4.96376L7.49881 4.96287L8.20592 4.25576ZM4.05185 0.101701L3.34475 0.808808L3.34385 0.807913L4.05185 0.101701ZM4.26789 0.809701C4.32878 0.748964 4.37709 0.676813 4.41005 0.597382L2.56277 -0.169153C2.63063 -0.332697 2.7301 -0.481249 2.85546 -0.606299L4.26789 0.809701ZM4.41005 0.597382C4.44301 0.517948 4.45997 0.432792 4.45997 0.346791H2.45997C2.45997 0.169722 2.49491 -0.00560661 2.56277 -0.169153L4.41005 0.597382ZM4.45997 0.346791C4.45997 0.260789 4.44301 0.175633 4.41005 0.0961999L2.56277 0.862734C2.49491 0.699188 2.45997 0.523859 2.45997 0.346791H4.45997ZM4.41005 0.0961999C4.37709 0.0167688 4.32878 -0.0553825 4.26789 -0.11612L2.85546 1.29988C2.7301 1.17483 2.63063 1.02628 2.56277 0.862734L4.41005 0.0961999ZM4.26872 -0.115289L8.17838 3.79368L6.7643 5.20802L2.85463 1.29905L4.26872 -0.115289ZM8.17838 5.20802L4.26872 9.117L2.85463 7.70266L6.7643 3.79368L8.17838 5.20802ZM4.26878 9.11693C4.39132 8.9944 4.46016 8.8282 4.46016 8.65492H2.46016C2.46016 8.29778 2.60203 7.95526 2.85457 7.70272L4.26878 9.11693ZM4.46016 8.65492C4.46016 8.48163 4.39132 8.31543 4.26878 8.1929L2.85457 9.60711C2.60203 9.35457 2.46016 9.01206 2.46016 8.65492H4.46016ZM4.26878 8.1929C4.14625 8.07036 3.98005 8.00152 3.80676 8.00152V10.0015C3.44962 10.0015 3.10711 9.85965 2.85457 9.60711L4.26878 8.1929ZM3.80676 8.00152C3.63348 8.00152 3.46728 8.07036 3.34475 8.1929L4.75896 9.60711C4.50642 9.85965 4.16391 10.0015 3.80676 10.0015V8.00152ZM3.34475 8.1929L7.49881 4.03884L8.91302 5.45305L4.75896 9.60711L3.34475 8.1929ZM7.4997 4.03794C7.43881 4.09868 7.39051 4.17083 7.35755 4.25026L9.20482 5.0168C9.13696 5.18034 9.03749 5.32889 8.91213 5.45394L7.4997 4.03794ZM7.35755 4.25026C7.32458 4.32969 7.30762 4.41485 7.30762 4.50085H9.30762C9.30762 4.67792 9.27268 4.85325 9.20482 5.0168L7.35755 4.25026ZM7.30762 4.50085C7.30762 4.58686 7.32458 4.67201 7.35755 4.75144L9.20482 3.98491C9.27268 4.14846 9.30762 4.32378 9.30762 4.50085H7.30762ZM7.35755 4.75144C7.39051 4.83088 7.43881 4.90303 7.4997 4.96376L8.91213 3.54776C9.03749 3.67281 9.13696 3.82137 9.20482 3.98491L7.35755 4.75144ZM7.49881 4.96287L3.34475 0.808808L4.75896 -0.605406L8.91302 3.54866L7.49881 4.96287ZM3.34385 0.807913C3.40459 0.868804 3.47674 0.917112 3.55617 0.950072L4.32271 -0.897203C4.48625 -0.82934 4.6348 -0.729877 4.75985 -0.604511L3.34385 0.807913ZM3.55617 0.950072C3.63561 0.983033 3.72076 1 3.80676 1V-1C3.98383 -1 4.15916 -0.965067 4.32271 -0.897203L3.55617 0.950072ZM3.80676 1C3.89277 1 3.97792 0.983033 4.05735 0.950072L3.29082 -0.897203C3.45437 -0.965067 3.62969 -1 3.80676 -1V1ZM4.05735 0.950072C4.13679 0.917112 4.20894 0.868804 4.26967 0.807913L2.85367 -0.604511C2.97872 -0.729877 3.12728 -0.82934 3.29082 -0.897203L4.05735 0.950072Z" fill="#374C91" mask="url(#path-1-inside-1)"/>
<mask id="path-3-inside-2" fill="white">
<path fill-rule="evenodd" clip-rule="evenodd" d="M0.792143 0.101701C0.759905 0.133857 0.734328 0.172058 0.716877 0.214114C0.699425 0.256171 0.690442 0.301257 0.690442 0.346791C0.690442 0.392324 0.699425 0.437411 0.716877 0.479467C0.734328 0.521524 0.759905 0.559724 0.792143 0.591881L4.70181 4.50085L0.792143 8.40983C0.759957 8.44201 0.734426 8.48022 0.717008 8.52227C0.699589 8.56433 0.690624 8.6094 0.690624 8.65492C0.690624 8.70043 0.699589 8.74551 0.717008 8.78756C0.734426 8.82961 0.759957 8.86782 0.792143 8.90001C0.824328 8.93219 0.862538 8.95772 0.904591 8.97514C0.946643 8.99256 0.991715 9.00152 1.03723 9.00152C1.08275 9.00152 1.12782 8.99256 1.16987 8.97514C1.21193 8.95772 1.25014 8.93219 1.28232 8.90001L5.43639 4.74594C5.46862 4.71379 5.4942 4.67559 5.51165 4.63353C5.5291 4.59147 5.53809 4.54639 5.53809 4.50085C5.53809 4.45532 5.5291 4.41023 5.51165 4.36818C5.4942 4.32612 5.46862 4.28792 5.43639 4.25576L1.28232 0.101701C1.25017 0.0694633 1.21197 0.0438861 1.16991 0.0264346C1.12785 0.00898306 1.08277 0 1.03723 0C0.991699 0 0.946613 0.00898306 0.904557 0.0264346C0.8625 0.0438861 0.824299 0.0694633 0.792143 0.101701Z"/>
</mask>
<path fill-rule="evenodd" clip-rule="evenodd" d="M0.792143 0.101701C0.759905 0.133857 0.734328 0.172058 0.716877 0.214114C0.699425 0.256171 0.690442 0.301257 0.690442 0.346791C0.690442 0.392324 0.699425 0.437411 0.716877 0.479467C0.734328 0.521524 0.759905 0.559724 0.792143 0.591881L4.70181 4.50085L0.792143 8.40983C0.759957 8.44201 0.734426 8.48022 0.717008 8.52227C0.699589 8.56433 0.690624 8.6094 0.690624 8.65492C0.690624 8.70043 0.699589 8.74551 0.717008 8.78756C0.734426 8.82961 0.759957 8.86782 0.792143 8.90001C0.824328 8.93219 0.862538 8.95772 0.904591 8.97514C0.946643 8.99256 0.991715 9.00152 1.03723 9.00152C1.08275 9.00152 1.12782 8.99256 1.16987 8.97514C1.21193 8.95772 1.25014 8.93219 1.28232 8.90001L5.43639 4.74594C5.46862 4.71379 5.4942 4.67559 5.51165 4.63353C5.5291 4.59147 5.53809 4.54639 5.53809 4.50085C5.53809 4.45532 5.5291 4.41023 5.51165 4.36818C5.4942 4.32612 5.46862 4.28792 5.43639 4.25576L1.28232 0.101701C1.25017 0.0694633 1.21197 0.0438861 1.16991 0.0264346C1.12785 0.00898306 1.08277 0 1.03723 0C0.991699 0 0.946613 0.00898306 0.904557 0.0264346C0.8625 0.0438861 0.824299 0.0694633 0.792143 0.101701Z" fill="#374C91"/>
<path d="M0.792143 0.591881L1.49836 -0.11612L1.49919 -0.115289L0.792143 0.591881ZM4.70181 4.50085L5.40885 3.79368L6.11615 4.50085L5.40885 5.20802L4.70181 4.50085ZM0.792143 8.40983L0.0850363 7.70272L0.0850987 7.70266L0.792143 8.40983ZM0.690624 8.65492H1.69062H0.690624ZM1.03723 9.00152V8.00152V9.00152ZM1.28232 8.90001L1.98943 9.60711L1.28232 8.90001ZM5.43639 4.74594L4.72928 4.03884L4.73017 4.03794L5.43639 4.74594ZM5.43639 4.25576L4.73017 4.96376L4.72928 4.96287L5.43639 4.25576ZM1.28232 0.101701L0.575215 0.808808L0.574323 0.807913L1.28232 0.101701ZM1.49836 0.809701C1.55925 0.748964 1.60755 0.676813 1.64051 0.597382L-0.206761 -0.169153C-0.138897 -0.332697 -0.0394359 -0.481249 0.0859303 -0.606299L1.49836 0.809701ZM1.64051 0.597382C1.67348 0.517948 1.69044 0.432792 1.69044 0.346791H-0.309558C-0.309558 0.169722 -0.274625 -0.00560661 -0.206761 -0.169153L1.64051 0.597382ZM1.69044 0.346791C1.69044 0.260789 1.67348 0.175633 1.64051 0.0961999L-0.206761 0.862734C-0.274625 0.699188 -0.309558 0.523859 -0.309558 0.346791H1.69044ZM1.64051 0.0961999C1.60755 0.0167688 1.55925 -0.0553825 1.49836 -0.11612L0.0859303 1.29988C-0.0394359 1.17483 -0.138897 1.02628 -0.206761 0.862734L1.64051 0.0961999ZM1.49919 -0.115289L5.40885 3.79368L3.99476 5.20802L0.0850987 1.29905L1.49919 -0.115289ZM5.40885 5.20802L1.49919 9.117L0.0850987 7.70266L3.99476 3.79368L5.40885 5.20802ZM1.49925 9.11693C1.55992 9.05626 1.60805 8.98423 1.64089 8.90496L-0.206872 8.13959C-0.139198 7.97621 -0.0400071 7.82776 0.0850363 7.70272L1.49925 9.11693ZM1.64089 8.90496C1.67372 8.82568 1.69062 8.74072 1.69062 8.65492H-0.309376C-0.309376 8.47808 -0.274548 8.30297 -0.206872 8.13959L1.64089 8.90496ZM1.69062 8.65492C1.69062 8.56912 1.67372 8.48415 1.64089 8.40487L-0.206872 9.17024C-0.274548 9.00686 -0.309376 8.83175 -0.309376 8.65492H1.69062ZM1.64089 8.40487C1.60805 8.3256 1.55992 8.25357 1.49925 8.1929L0.0850363 9.60711C-0.0400071 9.48207 -0.139198 9.33362 -0.206872 9.17024L1.64089 8.40487ZM1.49925 8.1929C1.43858 8.13223 1.36655 8.0841 1.28727 8.05126L0.521908 9.89902C0.358528 9.83135 0.21008 9.73216 0.0850363 9.60711L1.49925 8.1929ZM1.28727 8.05126C1.208 8.01842 1.12303 8.00152 1.03723 8.00152V10.0015C0.860398 10.0015 0.68529 9.9667 0.521908 9.89902L1.28727 8.05126ZM1.03723 8.00152C0.951433 8.00152 0.866468 8.01842 0.787191 8.05126L1.55256 9.89902C1.38918 9.9667 1.21407 10.0015 1.03723 10.0015V8.00152ZM0.787191 8.05126C0.707917 8.0841 0.635888 8.13223 0.575216 8.1929L1.98943 9.60711C1.86439 9.73216 1.71594 9.83135 1.55256 9.89902L0.787191 8.05126ZM0.575216 8.1929L4.72928 4.03884L6.14349 5.45305L1.98943 9.60711L0.575216 8.1929ZM4.73017 4.03794C4.66928 4.09868 4.62097 4.17083 4.58801 4.25026L6.43529 5.0168C6.36743 5.18034 6.26796 5.32889 6.1426 5.45394L4.73017 4.03794ZM4.58801 4.25026C4.55505 4.3297 4.53809 4.41486 4.53809 4.50085H6.53809C6.53809 4.67792 6.50315 4.85325 6.43529 5.0168L4.58801 4.25026ZM4.53809 4.50085C4.53809 4.58685 4.55505 4.67201 4.58801 4.75144L6.43529 3.98491C6.50315 4.14846 6.53809 4.32379 6.53809 4.50085H4.53809ZM4.58801 4.75144C4.62097 4.83088 4.66928 4.90303 4.73017 4.96376L6.1426 3.54776C6.26796 3.67281 6.36743 3.82136 6.43529 3.98491L4.58801 4.75144ZM4.72928 4.96287L0.575216 0.808808L1.98943 -0.605406L6.14349 3.54866L4.72928 4.96287ZM0.574323 0.807913C0.635059 0.868804 0.70721 0.917112 0.786642 0.950072L1.55318 -0.897203C1.71672 -0.82934 1.86527 -0.729877 1.99032 -0.604511L0.574323 0.807913ZM0.786642 0.950072C0.866074 0.983033 0.951231 1 1.03723 1V-1C1.2143 -1 1.38963 -0.965067 1.55318 -0.897203L0.786642 0.950072ZM1.03723 1C1.12324 1 1.20839 0.983033 1.28782 0.950072L0.521289 -0.897203C0.684835 -0.965067 0.860163 -1 1.03723 -1V1ZM1.28782 0.950072C1.36726 0.917112 1.43941 0.868804 1.50014 0.807913L0.0841432 -0.604511C0.209193 -0.729877 0.357745 -0.82934 0.521289 -0.897203L1.28782 0.950072Z" fill="#374C91" mask="url(#path-3-inside-2)"/>
</svg>
