<svg width="9" height="10" viewBox="0 0 9 10" fill="none" xmlns="http://www.w3.org/2000/svg">
<mask id="path-1-inside-1" fill="white">
<path fill-rule="evenodd" clip-rule="evenodd" d="M5.43833 0.101701C5.47056 0.133857 5.49614 0.172058 5.51359 0.214114C5.53104 0.256171 5.54003 0.301257 5.54003 0.346791C5.54003 0.392324 5.53104 0.437411 5.51359 0.479467C5.49614 0.521524 5.47056 0.559724 5.43833 0.591881L1.52866 4.50085L5.43833 8.40983C5.50333 8.47483 5.53984 8.56299 5.53984 8.65492C5.53984 8.74684 5.50333 8.835 5.43833 8.90001C5.37332 8.96501 5.28516 9.00152 5.19324 9.00152C5.10131 9.00152 5.01315 8.96501 4.94815 8.90001L0.794084 4.74594C0.761846 4.71379 0.736269 4.67559 0.718817 4.63353C0.701366 4.59147 0.692383 4.54639 0.692383 4.50085C0.692383 4.45532 0.701366 4.41023 0.718817 4.36818C0.736269 4.32612 0.761846 4.28792 0.794084 4.25576L4.94815 0.101701C4.9803 0.0694633 5.0185 0.0438861 5.06056 0.0264346C5.10262 0.00898306 5.1477 0 5.19324 0C5.23877 0 5.28386 0.00898306 5.32591 0.0264346C5.36797 0.0438861 5.40617 0.0694633 5.43833 0.101701Z"/>
</mask>
<path fill-rule="evenodd" clip-rule="evenodd" d="M5.43833 0.101701C5.47056 0.133857 5.49614 0.172058 5.51359 0.214114C5.53104 0.256171 5.54003 0.301257 5.54003 0.346791C5.54003 0.392324 5.53104 0.437411 5.51359 0.479467C5.49614 0.521524 5.47056 0.559724 5.43833 0.591881L1.52866 4.50085L5.43833 8.40983C5.50333 8.47483 5.53984 8.56299 5.53984 8.65492C5.53984 8.74684 5.50333 8.835 5.43833 8.90001C5.37332 8.96501 5.28516 9.00152 5.19324 9.00152C5.10131 9.00152 5.01315 8.96501 4.94815 8.90001L0.794084 4.74594C0.761846 4.71379 0.736269 4.67559 0.718817 4.63353C0.701366 4.59147 0.692383 4.54639 0.692383 4.50085C0.692383 4.45532 0.701366 4.41023 0.718817 4.36818C0.736269 4.32612 0.761846 4.28792 0.794084 4.25576L4.94815 0.101701C4.9803 0.0694633 5.0185 0.0438861 5.06056 0.0264346C5.10262 0.00898306 5.1477 0 5.19324 0C5.23877 0 5.28386 0.00898306 5.32591 0.0264346C5.36797 0.0438861 5.40617 0.0694633 5.43833 0.101701Z" fill="#374C91"/>
<path d="M5.43833 0.591881L4.73211 -0.11612L4.73128 -0.115289L5.43833 0.591881ZM1.52866 4.50085L0.821616 3.79368L0.114322 4.50085L0.821616 5.20802L1.52866 4.50085ZM5.43833 8.40983L6.14543 7.70272L6.14537 7.70266L5.43833 8.40983ZM5.53984 8.65492H4.53984H5.53984ZM5.19324 9.00152V10.0015V9.00152ZM4.94815 8.90001L4.24104 9.60711L4.94815 8.90001ZM0.794084 4.74594L1.50119 4.03884L1.5003 4.03794L0.794084 4.74594ZM0.794084 4.25576L1.5003 4.96376L1.50119 4.96287L0.794084 4.25576ZM4.94815 0.101701L5.65525 0.808808L5.65615 0.807913L4.94815 0.101701ZM4.73211 0.809701C4.67122 0.748964 4.62291 0.676813 4.58995 0.597382L6.43723 -0.169153C6.36937 -0.332697 6.2699 -0.481249 6.14454 -0.606299L4.73211 0.809701ZM4.58995 0.597382C4.55699 0.517948 4.54003 0.432792 4.54003 0.346791H6.54003C6.54003 0.169722 6.50509 -0.00560661 6.43723 -0.169153L4.58995 0.597382ZM4.54003 0.346791C4.54003 0.260789 4.55699 0.175633 4.58995 0.0961999L6.43723 0.862734C6.50509 0.699188 6.54003 0.523859 6.54003 0.346791H4.54003ZM4.58995 0.0961999C4.62291 0.0167688 4.67122 -0.0553825 4.73211 -0.11612L6.14454 1.29988C6.2699 1.17483 6.36937 1.02628 6.43723 0.862734L4.58995 0.0961999ZM4.73128 -0.115289L0.821616 3.79368L2.2357 5.20802L6.14537 1.29905L4.73128 -0.115289ZM0.821616 5.20802L4.73128 9.117L6.14537 7.70266L2.2357 3.79368L0.821616 5.20802ZM4.73122 9.11693C4.60868 8.9944 4.53984 8.8282 4.53984 8.65492H6.53984C6.53984 8.29778 6.39797 7.95526 6.14543 7.70272L4.73122 9.11693ZM4.53984 8.65492C4.53984 8.48163 4.60868 8.31543 4.73122 8.1929L6.14543 9.60711C6.39797 9.35457 6.53984 9.01206 6.53984 8.65492H4.53984ZM4.73122 8.1929C4.85375 8.07036 5.01995 8.00152 5.19324 8.00152V10.0015C5.55038 10.0015 5.89289 9.85965 6.14543 9.60711L4.73122 8.1929ZM5.19324 8.00152C5.36652 8.00152 5.53272 8.07036 5.65525 8.1929L4.24104 9.60711C4.49358 9.85965 4.83609 10.0015 5.19324 10.0015V8.00152ZM5.65525 8.1929L1.50119 4.03884L0.0869771 5.45305L4.24104 9.60711L5.65525 8.1929ZM1.5003 4.03794C1.56119 4.09868 1.60949 4.17083 1.64245 4.25026L-0.20482 5.0168C-0.136957 5.18034 -0.0374947 5.32889 0.0878714 5.45394L1.5003 4.03794ZM1.64245 4.25026C1.67542 4.32969 1.69238 4.41485 1.69238 4.50085H-0.307617C-0.307617 4.67792 -0.272684 4.85325 -0.20482 5.0168L1.64245 4.25026ZM1.69238 4.50085C1.69238 4.58686 1.67542 4.67201 1.64245 4.75144L-0.20482 3.98491C-0.272684 4.14846 -0.307617 4.32378 -0.307617 4.50085H1.69238ZM1.64245 4.75144C1.60949 4.83088 1.56119 4.90303 1.5003 4.96376L0.0878714 3.54776C-0.0374947 3.67281 -0.136957 3.82137 -0.20482 3.98491L1.64245 4.75144ZM1.50119 4.96287L5.65525 0.808808L4.24104 -0.605406L0.0869771 3.54866L1.50119 4.96287ZM5.65615 0.807913C5.59541 0.868804 5.52326 0.917112 5.44383 0.950072L4.67729 -0.897203C4.51375 -0.82934 4.3652 -0.729877 4.24015 -0.604511L5.65615 0.807913ZM5.44383 0.950072C5.36439 0.983033 5.27924 1 5.19324 1V-1C5.01617 -1 4.84084 -0.965067 4.67729 -0.897203L5.44383 0.950072ZM5.19324 1C5.10723 1 5.02208 0.983033 4.94265 0.950072L5.70918 -0.897203C5.54563 -0.965067 5.37031 -1 5.19324 -1V1ZM4.94265 0.950072C4.86321 0.917112 4.79106 0.868804 4.73033 0.807913L6.14633 -0.604511C6.02128 -0.729877 5.87272 -0.82934 5.70918 -0.897203L4.94265 0.950072Z" fill="#374C91" mask="url(#path-1-inside-1)"/>
<mask id="path-3-inside-2" fill="white">
<path fill-rule="evenodd" clip-rule="evenodd" d="M8.20786 0.101701C8.24009 0.133857 8.26567 0.172058 8.28312 0.214114C8.30057 0.256171 8.30956 0.301257 8.30956 0.346791C8.30956 0.392324 8.30057 0.437411 8.28312 0.479467C8.26567 0.521524 8.24009 0.559724 8.20786 0.591881L4.29819 4.50085L8.20786 8.40983C8.24004 8.44201 8.26557 8.48022 8.28299 8.52227C8.30041 8.56433 8.30938 8.6094 8.30938 8.65492C8.30938 8.70043 8.30041 8.74551 8.28299 8.78756C8.26557 8.82961 8.24004 8.86782 8.20786 8.90001C8.17567 8.93219 8.13746 8.95772 8.09541 8.97514C8.05336 8.99256 8.00828 9.00152 7.96277 9.00152C7.91725 9.00152 7.87218 8.99256 7.83013 8.97514C7.78807 8.95772 7.74986 8.93219 7.71768 8.90001L3.56361 4.74594C3.53138 4.71379 3.5058 4.67559 3.48835 4.63353C3.4709 4.59147 3.46191 4.54639 3.46191 4.50085C3.46191 4.45532 3.4709 4.41023 3.48835 4.36818C3.5058 4.32612 3.53138 4.28792 3.56361 4.25576L7.71768 0.101701C7.74983 0.0694633 7.78803 0.0438861 7.83009 0.0264346C7.87215 0.00898306 7.91723 0 7.96277 0C8.0083 0 8.05339 0.00898306 8.09544 0.0264346C8.1375 0.0438861 8.1757 0.0694633 8.20786 0.101701Z"/>
</mask>
<path fill-rule="evenodd" clip-rule="evenodd" d="M8.20786 0.101701C8.24009 0.133857 8.26567 0.172058 8.28312 0.214114C8.30057 0.256171 8.30956 0.301257 8.30956 0.346791C8.30956 0.392324 8.30057 0.437411 8.28312 0.479467C8.26567 0.521524 8.24009 0.559724 8.20786 0.591881L4.29819 4.50085L8.20786 8.40983C8.24004 8.44201 8.26557 8.48022 8.28299 8.52227C8.30041 8.56433 8.30938 8.6094 8.30938 8.65492C8.30938 8.70043 8.30041 8.74551 8.28299 8.78756C8.26557 8.82961 8.24004 8.86782 8.20786 8.90001C8.17567 8.93219 8.13746 8.95772 8.09541 8.97514C8.05336 8.99256 8.00828 9.00152 7.96277 9.00152C7.91725 9.00152 7.87218 8.99256 7.83013 8.97514C7.78807 8.95772 7.74986 8.93219 7.71768 8.90001L3.56361 4.74594C3.53138 4.71379 3.5058 4.67559 3.48835 4.63353C3.4709 4.59147 3.46191 4.54639 3.46191 4.50085C3.46191 4.45532 3.4709 4.41023 3.48835 4.36818C3.5058 4.32612 3.53138 4.28792 3.56361 4.25576L7.71768 0.101701C7.74983 0.0694633 7.78803 0.0438861 7.83009 0.0264346C7.87215 0.00898306 7.91723 0 7.96277 0C8.0083 0 8.05339 0.00898306 8.09544 0.0264346C8.1375 0.0438861 8.1757 0.0694633 8.20786 0.101701Z" fill="#374C91"/>
<path d="M8.20786 0.591881L7.50164 -0.11612L7.50081 -0.115289L8.20786 0.591881ZM4.29819 4.50085L3.59115 3.79368L2.88385 4.50085L3.59115 5.20802L4.29819 4.50085ZM8.20786 8.40983L8.91496 7.70272L8.9149 7.70266L8.20786 8.40983ZM8.30938 8.65492H7.30938H8.30938ZM7.96277 9.00152V8.00152V9.00152ZM7.71768 8.90001L7.01057 9.60711L7.71768 8.90001ZM3.56361 4.74594L4.27072 4.03884L4.26983 4.03794L3.56361 4.74594ZM3.56361 4.25576L4.26983 4.96376L4.27072 4.96287L3.56361 4.25576ZM7.71768 0.101701L8.42478 0.808808L8.42568 0.807913L7.71768 0.101701ZM7.50164 0.809701C7.44075 0.748964 7.39245 0.676813 7.35949 0.597382L9.20676 -0.169153C9.1389 -0.332697 9.03944 -0.481249 8.91407 -0.606299L7.50164 0.809701ZM7.35949 0.597382C7.32652 0.517948 7.30956 0.432792 7.30956 0.346791H9.30956C9.30956 0.169722 9.27462 -0.00560661 9.20676 -0.169153L7.35949 0.597382ZM7.30956 0.346791C7.30956 0.260789 7.32652 0.175633 7.35949 0.0961999L9.20676 0.862734C9.27462 0.699188 9.30956 0.523859 9.30956 0.346791H7.30956ZM7.35949 0.0961999C7.39245 0.0167688 7.44075 -0.0553825 7.50164 -0.11612L8.91407 1.29988C9.03944 1.17483 9.1389 1.02628 9.20676 0.862734L7.35949 0.0961999ZM7.50081 -0.115289L3.59115 3.79368L5.00524 5.20802L8.9149 1.29905L7.50081 -0.115289ZM3.59115 5.20802L7.50081 9.117L8.9149 7.70266L5.00524 3.79368L3.59115 5.20802ZM7.50075 9.11693C7.44008 9.05626 7.39195 8.98423 7.35911 8.90496L9.20687 8.13959C9.1392 7.97621 9.04001 7.82776 8.91496 7.70272L7.50075 9.11693ZM7.35911 8.90496C7.32628 8.82568 7.30938 8.74072 7.30938 8.65492H9.30938C9.30938 8.47808 9.27455 8.30297 9.20687 8.13959L7.35911 8.90496ZM7.30938 8.65492C7.30938 8.56912 7.32628 8.48415 7.35911 8.40487L9.20687 9.17024C9.27455 9.00686 9.30938 8.83175 9.30938 8.65492H7.30938ZM7.35911 8.40487C7.39195 8.3256 7.44008 8.25357 7.50075 8.1929L8.91496 9.60711C9.04001 9.48207 9.1392 9.33362 9.20687 9.17024L7.35911 8.40487ZM7.50075 8.1929C7.56142 8.13223 7.63345 8.0841 7.71273 8.05126L8.47809 9.89902C8.64147 9.83135 8.78992 9.73216 8.91496 9.60711L7.50075 8.1929ZM7.71273 8.05126C7.792 8.01842 7.87697 8.00152 7.96277 8.00152V10.0015C8.1396 10.0015 8.31471 9.9667 8.47809 9.89902L7.71273 8.05126ZM7.96277 8.00152C8.04857 8.00152 8.13353 8.01842 8.21281 8.05126L7.44744 9.89902C7.61082 9.9667 7.78593 10.0015 7.96277 10.0015V8.00152ZM8.21281 8.05126C8.29208 8.0841 8.36411 8.13223 8.42478 8.1929L7.01057 9.60711C7.13561 9.73216 7.28406 9.83135 7.44744 9.89902L8.21281 8.05126ZM8.42478 8.1929L4.27072 4.03884L2.85651 5.45305L7.01057 9.60711L8.42478 8.1929ZM4.26983 4.03794C4.33072 4.09868 4.37903 4.17083 4.41199 4.25026L2.56471 5.0168C2.63257 5.18034 2.73204 5.32889 2.8574 5.45394L4.26983 4.03794ZM4.41199 4.25026C4.44495 4.3297 4.46191 4.41486 4.46191 4.50085H2.46191C2.46191 4.67792 2.49685 4.85325 2.56471 5.0168L4.41199 4.25026ZM4.46191 4.50085C4.46191 4.58685 4.44495 4.67201 4.41199 4.75144L2.56471 3.98491C2.49685 4.14846 2.46191 4.32379 2.46191 4.50085H4.46191ZM4.41199 4.75144C4.37903 4.83088 4.33072 4.90303 4.26983 4.96376L2.8574 3.54776C2.73204 3.67281 2.63257 3.82136 2.56471 3.98491L4.41199 4.75144ZM4.27072 4.96287L8.42478 0.808808L7.01057 -0.605406L2.85651 3.54866L4.27072 4.96287ZM8.42568 0.807913C8.36494 0.868804 8.29279 0.917112 8.21336 0.950072L7.44682 -0.897203C7.28328 -0.82934 7.13473 -0.729877 7.00968 -0.604511L8.42568 0.807913ZM8.21336 0.950072C8.13393 0.983033 8.04877 1 7.96277 1V-1C7.7857 -1 7.61037 -0.965067 7.44682 -0.897203L8.21336 0.950072ZM7.96277 1C7.87676 1 7.79161 0.983033 7.71218 0.950072L8.47871 -0.897203C8.31517 -0.965067 8.13984 -1 7.96277 -1V1ZM7.71218 0.950072C7.63274 0.917112 7.56059 0.868804 7.49986 0.807913L8.91586 -0.604511C8.79081 -0.729877 8.64225 -0.82934 8.47871 -0.897203L7.71218 0.950072Z" fill="#374C91" mask="url(#path-3-inside-2)"/>
</svg>
