<svg width="17" height="14" viewBox="0 0 17 14" fill="none" xmlns="http://www.w3.org/2000/svg">
<path d="M11.7215 8.20001C11.8665 7.81629 11.9401 7.40971 11.9386 7.00001C11.9386 6.09031 11.5736 5.21788 10.9239 4.57463C10.2742 3.93138 9.39305 3.57001 8.47423 3.57001C8.06552 3.57048 7.66018 3.64329 7.27734 3.78501L8.09042 4.61501C8.21402 4.59543 8.33897 4.5854 8.46413 4.58501C9.1138 4.58366 9.73762 4.83688 10.1994 5.28935C10.6611 5.74183 10.9233 6.35681 10.9286 7.00001C10.9282 7.12393 10.9181 7.24764 10.8983 7.37001L11.7215 8.20001Z" fill="#C4C4C4"/>
<path d="M16.3168 6.76501C14.6149 3.65001 11.6302 1.76501 8.32744 1.76501C7.42818 1.7671 6.53497 1.91056 5.68115 2.19001L6.49423 3.00001C7.0931 2.84678 7.7089 2.76784 8.32744 2.76501C11.1707 2.76501 13.7564 4.33501 15.2967 6.98001C14.7316 7.96132 13.9826 8.82681 13.0897 9.53001L13.8069 10.24C14.8402 9.41468 15.6983 8.39511 16.332 7.24001L16.4633 7.00001L16.3168 6.76501Z" fill="#C4C4C4"/>
<path d="M1.45964 0.889989L3.71201 3.11999C2.28833 4.02754 1.12476 5.28287 0.333453 6.76499L0.202148 6.99999L0.333453 7.23999C2.03536 10.355 5.02001 12.24 8.32282 12.24C9.61195 12.2397 10.8843 11.9509 12.0448 11.395L14.5699 13.895L15.4537 13.145L2.32322 0.144989L1.45964 0.889989ZM6.38355 5.76499L9.74191 9.08999C9.36246 9.32253 8.92563 9.44709 8.47937 9.44999C8.15512 9.45 7.83406 9.38652 7.53468 9.26321C7.23529 9.1399 6.96349 8.9592 6.73491 8.7315C6.50633 8.5038 6.32549 8.23359 6.20279 7.93643C6.08008 7.63927 6.01794 7.32102 6.01994 6.99999C6.02563 6.56327 6.15133 6.13633 6.38355 5.76499ZM5.65128 5.03999C5.1788 5.69969 4.95735 6.50364 5.02613 7.30948C5.0949 8.11533 5.44948 8.87109 6.02706 9.44294C6.60465 10.0148 7.36799 10.3658 8.18192 10.4339C8.99585 10.502 9.80787 10.2828 10.4742 9.81499L11.2822 10.615C10.3468 11.0109 9.34009 11.215 8.32282 11.215C5.47957 11.215 2.89389 9.64499 1.35359 6.99999C2.09278 5.7041 3.15737 4.61909 4.44429 3.84999L5.65128 5.03999Z" fill="#C4C4C4"/>
</svg>
