<svg width="26" height="24" viewBox="0 0 26 24" fill="none" xmlns="http://www.w3.org/2000/svg">
<path d="M23.0751 0.948999C19.6312 3.90613 16.7176 6.72112 14.0501 10.3939C12.8738 12.0138 11.5655 13.9204 10.7104 15.7205C10.2222 16.675 9.34215 18.1666 9.04214 19.6006C7.40124 18.086 5.6387 16.3668 3.83535 15.0203C2.54998 14.0609 -1.15225 16.0169 0.354768 17.142C3.05572 19.1575 5.30195 21.668 7.92902 23.7734C9.02785 24.6531 11.4631 22.7428 12.0353 21.9413C13.9138 19.3009 14.1706 16.0732 15.5396 13.193C17.6299 8.78812 21.337 5.16966 24.9972 2.02745C27.4222 -0.216522 24.9176 -0.630408 23.0788 0.948999" fill="#37B34A"/>
</svg>
