<svg width="41" height="29" viewBox="0 0 41 29" fill="none" xmlns="http://www.w3.org/2000/svg">
<rect width="41" height="29" rx="2" fill="white"/>
<mask id="mask0" mask-type="alpha" maskUnits="userSpaceOnUse" x="0" y="0" width="41" height="29">
<rect width="41" height="29" rx="2" fill="white"/>
</mask>
<g mask="url(#mask0)">
<path fill-rule="evenodd" clip-rule="evenodd" d="M41 0H0V1.93333H41V0ZM41 3.86668H0V5.80001H41V3.86668ZM0 7.73332H41V9.66666H0V7.73332ZM41 11.6H0V13.5333H41V11.6ZM0 15.4667H41V17.4H0V15.4667ZM41 19.3333H0V21.2667H41V19.3333ZM0 23.2H41V25.1333H0V23.2ZM41 27.0667H0V29H41V27.0667Z" fill="#D02F44"/>
<rect width="17.5714" height="13.5333" fill="#46467F"/>
<g filter="url(#filter0_d)">
<path fill-rule="evenodd" clip-rule="evenodd" d="M3.90551 2.89977C3.90551 3.43365 3.46845 3.86644 2.92932 3.86644C2.39018 3.86644 1.95312 3.43365 1.95312 2.89977C1.95312 2.3659 2.39018 1.93311 2.92932 1.93311C3.46845 1.93311 3.90551 2.3659 3.90551 2.89977ZM7.80997 2.89977C7.80997 3.43365 7.37291 3.86644 6.83378 3.86644C6.29464 3.86644 5.85758 3.43365 5.85758 2.89977C5.85758 2.3659 6.29464 1.93311 6.83378 1.93311C7.37291 1.93311 7.80997 2.3659 7.80997 2.89977ZM10.7391 3.86644C11.2783 3.86644 11.7153 3.43365 11.7153 2.89977C11.7153 2.3659 11.2783 1.93311 10.7391 1.93311C10.2 1.93311 9.76295 2.3659 9.76295 2.89977C9.76295 3.43365 10.2 3.86644 10.7391 3.86644ZM15.6198 2.89977C15.6198 3.43365 15.1827 3.86644 14.6436 3.86644C14.1045 3.86644 13.6674 3.43365 13.6674 2.89977C13.6674 2.3659 14.1045 1.93311 14.6436 1.93311C15.1827 1.93311 15.6198 2.3659 15.6198 2.89977ZM4.882 5.79976C5.42113 5.79976 5.85819 5.36697 5.85819 4.8331C5.85819 4.29922 5.42113 3.86643 4.882 3.86643C4.34286 3.86643 3.90581 4.29922 3.90581 4.8331C3.90581 5.36697 4.34286 5.79976 4.882 5.79976ZM9.76265 4.8331C9.76265 5.36697 9.32559 5.79976 8.78646 5.79976C8.24732 5.79976 7.81027 5.36697 7.81027 4.8331C7.81027 4.29922 8.24732 3.86643 8.78646 3.86643C9.32559 3.86643 9.76265 4.29922 9.76265 4.8331ZM12.6909 5.79976C13.2301 5.79976 13.6671 5.36697 13.6671 4.8331C13.6671 4.29922 13.2301 3.86643 12.6909 3.86643C12.1518 3.86643 11.7147 4.29922 11.7147 4.8331C11.7147 5.36697 12.1518 5.79976 12.6909 5.79976ZM15.6198 6.76645C15.6198 7.30032 15.1827 7.73311 14.6436 7.73311C14.1045 7.73311 13.6674 7.30032 13.6674 6.76645C13.6674 6.23257 14.1045 5.79978 14.6436 5.79978C15.1827 5.79978 15.6198 6.23257 15.6198 6.76645ZM10.7391 7.73311C11.2783 7.73311 11.7153 7.30032 11.7153 6.76645C11.7153 6.23257 11.2783 5.79978 10.7391 5.79978C10.2 5.79978 9.76295 6.23257 9.76295 6.76645C9.76295 7.30032 10.2 7.73311 10.7391 7.73311ZM7.80997 6.76645C7.80997 7.30032 7.37291 7.73311 6.83378 7.73311C6.29464 7.73311 5.85758 7.30032 5.85758 6.76645C5.85758 6.23257 6.29464 5.79978 6.83378 5.79978C7.37291 5.79978 7.80997 6.23257 7.80997 6.76645ZM2.92932 7.73311C3.46845 7.73311 3.90551 7.30032 3.90551 6.76645C3.90551 6.23257 3.46845 5.79978 2.92932 5.79978C2.39018 5.79978 1.95312 6.23257 1.95312 6.76645C1.95312 7.30032 2.39018 7.73311 2.92932 7.73311ZM5.85819 8.69977C5.85819 9.23365 5.42113 9.66644 4.882 9.66644C4.34286 9.66644 3.90581 9.23365 3.90581 8.69977C3.90581 8.1659 4.34286 7.73311 4.882 7.73311C5.42113 7.73311 5.85819 8.1659 5.85819 8.69977ZM8.78646 9.66644C9.32559 9.66644 9.76265 9.23365 9.76265 8.69977C9.76265 8.1659 9.32559 7.73311 8.78646 7.73311C8.24732 7.73311 7.81027 8.1659 7.81027 8.69977C7.81027 9.23365 8.24732 9.66644 8.78646 9.66644ZM13.6671 8.69977C13.6671 9.23365 13.2301 9.66644 12.6909 9.66644C12.1518 9.66644 11.7147 9.23365 11.7147 8.69977C11.7147 8.1659 12.1518 7.73311 12.6909 7.73311C13.2301 7.73311 13.6671 8.1659 13.6671 8.69977ZM14.6436 11.5998C15.1827 11.5998 15.6198 11.167 15.6198 10.6331C15.6198 10.0992 15.1827 9.66643 14.6436 9.66643C14.1045 9.66643 13.6674 10.0992 13.6674 10.6331C13.6674 11.167 14.1045 11.5998 14.6436 11.5998ZM11.7153 10.6331C11.7153 11.167 11.2783 11.5998 10.7391 11.5998C10.2 11.5998 9.76295 11.167 9.76295 10.6331C9.76295 10.0992 10.2 9.66643 10.7391 9.66643C11.2783 9.66643 11.7153 10.0992 11.7153 10.6331ZM6.83378 11.5998C7.37291 11.5998 7.80997 11.167 7.80997 10.6331C7.80997 10.0992 7.37291 9.66643 6.83378 9.66643C6.29464 9.66643 5.85758 10.0992 5.85758 10.6331C5.85758 11.167 6.29464 11.5998 6.83378 11.5998ZM3.90551 10.6331C3.90551 11.167 3.46845 11.5998 2.92932 11.5998C2.39018 11.5998 1.95312 11.167 1.95312 10.6331C1.95312 10.0992 2.39018 9.66643 2.92932 9.66643C3.46845 9.66643 3.90551 10.0992 3.90551 10.6331Z" fill="url(#paint0_linear)"/>
</g>
</g>
<defs>
<filter id="filter0_d" x="1.95312" y="1.93311" width="13.6667" height="10.6667" filterUnits="userSpaceOnUse" color-interpolation-filters="sRGB">
<feFlood flood-opacity="0" result="BackgroundImageFix"/>
<feColorMatrix in="SourceAlpha" type="matrix" values="0 0 0 0 0 0 0 0 0 0 0 0 0 0 0 0 0 0 127 0"/>
<feOffset dy="1"/>
<feColorMatrix type="matrix" values="0 0 0 0 0 0 0 0 0 0 0 0 0 0 0 0 0 0 0.06 0"/>
<feBlend mode="normal" in2="BackgroundImageFix" result="effect1_dropShadow"/>
<feBlend mode="normal" in="SourceGraphic" in2="effect1_dropShadow" result="shape"/>
</filter>
<linearGradient id="paint0_linear" x1="1.95312" y1="1.93311" x2="1.95312" y2="11.5998" gradientUnits="userSpaceOnUse">
<stop stop-color="white"/>
<stop offset="1" stop-color="#F0F0F0"/>
</linearGradient>
</defs>
</svg>
